<?xml version="1.0" standalone="no"?>
<!DOCTYPE svg PUBLIC "-//W3C//DTD SVG 20010904//EN"
 "http://www.w3.org/TR/2001/REC-SVG-20010904/DTD/svg10.dtd">
<svg version="1.0" xmlns="http://www.w3.org/2000/svg"
 width="612.000000pt" height="408.000000pt" viewBox="0 0 612.000000 408.000000"
 preserveAspectRatio="xMidYMid meet">

<g transform="translate(0.000000,408.000000) scale(0.100000,-0.100000)"
fill="#000000" stroke="none">
<path d="M445 3514 c-33 -9 -88 -14 -160 -12 -60 1 -149 -2 -197 -6 l-88 -9 1
-101 c1 -57 4 -88 8 -71 3 17 11 30 16 30 15 0 25 -106 23 -225 -2 -58 1 -107
6 -110 6 -3 10 35 11 90 2 127 30 180 94 180 20 0 21 -6 21 -85 0 -55 4 -85
11 -85 7 0 10 30 8 92 -4 100 2 111 44 78 76 -60 106 -312 53 -459 -9 -24 -16
-66 -16 -94 0 -46 4 -53 40 -87 l40 -37 0 -89 c0 -49 5 -96 10 -104 7 -10 10
18 10 88 0 93 2 104 22 120 90 71 94 90 51 229 -23 76 -27 107 -27 223 -1 128
0 138 28 197 31 67 60 101 71 84 3 -6 9 -43 12 -81 4 -45 10 -69 17 -67 12 4
11 9 -4 100 -12 66 1 137 25 137 19 0 23 -21 30 -177 5 -112 4 -135 -10 -157
-24 -36 -16 -71 15 -71 l25 0 1 130 c0 106 4 137 20 170 l19 40 3 -138 c2 -90
6 -136 13 -132 6 5 7 50 3 129 -7 128 3 189 32 200 22 8 50 -25 69 -85 10 -30
26 -71 37 -92 10 -21 16 -47 13 -57 -3 -10 -1 -21 5 -25 8 -5 10 -32 8 -73 -2
-46 1 -67 10 -70 9 -3 11 12 6 65 -7 81 6 140 40 172 31 30 46 20 46 -30 0
-27 4 -39 14 -39 8 0 18 5 21 10 15 25 25 -7 25 -81 0 -51 4 -78 10 -74 6 3
10 33 10 66 0 70 23 83 39 22 49 -183 76 -406 76 -633 0 -183 -2 -201 -27
-291 -43 -150 -36 -198 43 -283 l42 -46 -7 -80 c-7 -77 -7 -80 14 -80 19 0 20
4 15 78 -7 84 -7 85 48 125 88 66 92 151 21 427 -48 182 -48 187 -48 340 0
161 21 300 51 338 11 14 13 -22 11 -250 -1 -148 2 -269 7 -270 5 -2 7 122 6
282 -2 265 -1 288 16 309 20 25 52 20 54 -8 1 -9 5 8 9 38 8 53 31 95 63 115
36 23 56 -40 57 -176 0 -57 4 -88 11 -88 7 0 10 41 7 130 -2 110 0 132 14 146
15 15 17 15 26 -2 22 -42 33 -141 31 -272 -2 -93 1 -149 10 -176 12 -35 11
-91 -3 -141 -4 -11 -2 -27 4 -35 9 -13 12 -13 24 3 10 13 11 28 5 55 -15 63
-11 100 11 112 35 19 41 43 24 101 -21 68 -15 284 9 341 26 62 67 68 114 16
30 -32 49 -80 63 -165 17 -102 41 -134 113 -152 51 -12 58 -16 66 -47 5 -19 6
-122 1 -251 -4 -120 -6 -221 -3 -225 8 -14 42 -8 52 9 6 12 3 32 -11 68 -18
46 -20 67 -15 275 5 262 20 332 59 270 21 -33 28 -23 28 39 0 44 5 65 21 85
26 33 42 33 67 1 l20 -25 16 25 c16 24 18 25 46 10 31 -16 74 -81 91 -137 18
-60 12 -177 -16 -281 -24 -92 -25 -109 -19 -233 7 -140 21 -178 26 -72 2 36 8
63 15 65 20 7 43 -41 55 -110 10 -59 9 -69 -11 -111 -26 -52 -25 -73 4 -92 18
-12 24 -11 44 2 25 18 24 27 -4 104 -22 58 -13 112 26 170 35 52 35 69 -1 195
-18 62 -23 107 -24 205 -1 120 0 127 26 165 15 22 30 59 34 82 10 63 26 72 78
43 54 -29 91 -23 101 17 18 76 62 95 95 41 16 -27 20 -51 20 -135 0 -131 18
-136 22 -7 3 92 4 98 30 117 26 20 27 20 59 1 84 -49 102 -142 100 -513 -2
-270 -3 -287 -26 -360 -27 -82 -32 -149 -14 -184 23 -45 52 -67 86 -67 108 0
127 90 68 314 -19 72 -40 174 -46 226 -13 105 -6 282 13 345 l13 40 3 -40 4
-40 17 45 c13 35 22 46 42 48 14 2 31 -3 37 -11 21 -24 34 -157 37 -362 1
-138 6 -200 14 -203 8 -3 11 59 11 230 0 251 4 270 53 298 57 32 91 -27 107
-184 16 -163 47 -216 122 -216 65 0 96 23 129 98 49 109 54 117 76 120 18 3
27 -9 53 -63 70 -146 100 -287 100 -465 0 -135 -44 -438 -91 -622 -23 -91 -24
-161 -4 -243 8 -33 14 -86 15 -117 0 -52 12 -79 27 -64 4 3 5 33 4 65 -2 60
10 84 32 62 7 -7 14 -51 17 -99 5 -79 7 -87 25 -87 18 0 20 6 17 47 -4 50 2
60 67 101 88 57 96 121 38 313 -71 233 -87 358 -88 660 0 148 3 181 21 231 11
32 27 101 35 153 26 159 49 209 87 189 50 -27 79 -179 79 -414 0 -123 -4 -185
-15 -225 -14 -48 -14 -57 0 -77 19 -30 49 -29 69 1 15 22 15 32 -1 113 -35
186 19 654 69 604 11 -11 12 -56 5 -116 -2 -12 3 -20 12 -20 12 0 14 11 11 50
-7 99 -7 109 10 113 9 1 20 -8 27 -23 8 -17 19 -25 30 -23 15 3 17 16 17 98 1
138 31 181 70 98 15 -31 25 -42 39 -40 17 3 18 -4 11 -134 -6 -111 -5 -136 6
-132 10 3 12 37 10 154 -3 154 1 184 25 184 38 0 64 -134 64 -332 0 -149 -14
-343 -32 -461 l-11 -77 27 -29 c51 -53 115 -49 154 10 32 47 27 106 -28 299
-43 151 -44 159 -45 300 0 114 4 156 18 197 37 105 94 131 153 68 65 -69 100
-231 74 -340 -15 -62 -5 -85 36 -85 33 0 38 29 18 112 -15 62 -16 82 -6 153
22 152 64 230 120 223 23 -3 30 3 45 37 36 80 43 90 64 93 37 5 47 -31 51
-190 3 -102 8 -148 16 -148 8 0 11 42 11 142 0 126 3 149 22 191 49 105 73 42
73 -194 0 -151 -2 -169 -20 -192 -26 -32 -25 -63 0 -77 48 -26 82 19 59 75
-18 44 -24 373 -7 404 7 14 18 26 24 28 17 6 41 -64 69 -201 32 -156 33 -276
4 -387 -25 -99 -20 -147 22 -214 17 -27 34 -71 39 -98 4 -30 15 -56 26 -64 47
-35 100 5 88 66 -6 28 -2 37 30 70 61 62 64 104 22 296 -35 160 -9 342 49 344
6 0 13 22 16 48 10 83 39 117 39 46 0 -45 10 -37 17 14 6 47 22 58 47 33 16
-16 20 -36 22 -127 1 -81 5 -108 15 -108 10 0 12 23 10 102 -3 102 3 143 19
143 12 0 21 -28 30 -90 5 -41 8 -13 9 106 1 146 -1 163 -16 169 -64 26 -735
21 -837 -6 -23 -6 -59 -22 -81 -37 -37 -25 -50 -27 -190 -33 -82 -4 -157 -10
-165 -13 -9 -4 -25 -26 -35 -49 -18 -37 -24 -42 -58 -45 -28 -2 -50 5 -95 32
-89 55 -168 65 -582 76 -550 14 -776 12 -834 -5 -74 -22 -92 -19 -139 25 -24
21 -56 44 -73 51 -33 14 -766 34 -849 23 -27 -3 -220 -5 -428 -4 -331 1 -387
3 -450 20 -42 10 -164 25 -292 34 -121 9 -245 21 -275 26 -38 7 -66 6 -92 -2
-29 -8 -47 -8 -77 0 -45 14 -42 14 -106 -4z"/>
<path d="M1408 3012 c-4 -157 -3 -192 6 -189 8 2 9 247 0 256 -2 2 -5 -28 -6
-67z"/>
<path d="M3191 2853 c-1 -40 3 -53 14 -53 11 0 13 8 8 33 -13 66 -22 74 -22
20z"/>
</g>
</svg>
